<svg id="Layer_1" data-name="Layer 1" xmlns="http://www.w3.org/2000/svg" xmlns:xlink="http://www.w3.org/1999/xlink" viewBox="0 0 1281 481"><defs><style>.cls-1,.cls-14,.cls-3,.cls-9{fill:none;}.cls-2{clip-path:url(#clip-path);}.cls-22,.cls-3,.cls-6{stroke:#c6d0e0;}.cls-10,.cls-11,.cls-12,.cls-15,.cls-16,.cls-17,.cls-18,.cls-22,.cls-3,.cls-4,.cls-5,.cls-6,.cls-7,.cls-9{stroke-linecap:round;stroke-linejoin:round;}.cls-11,.cls-12,.cls-3,.cls-4,.cls-5,.cls-6,.cls-7,.cls-9{stroke-width:2px;}.cls-16,.cls-4,.cls-8{fill:#FCD469;}.cls-10,.cls-11,.cls-12,.cls-14,.cls-15,.cls-16,.cls-17,.cls-18,.cls-4,.cls-5,.cls-7,.cls-9{stroke:#0041b0;}.cls-17,.cls-19,.cls-5{fill:#fff;}.cls-10,.cls-13,.cls-15,.cls-18,.cls-22,.cls-6,.cls-7{fill:#f6f6f6;}.cls-10{stroke-width:2.21px;}.cls-11{fill:#00ae42;}.cls-12{fill:#5ecc88;}.cls-14{stroke-miterlimit:10;}.cls-14,.cls-15,.cls-16{stroke-width:1.69px;}.cls-17,.cls-18{stroke-width:1.97px;}.cls-20{fill:#006fba;}.cls-21{fill:#0041b0;}.cls-22{stroke-width:2.07px;}</style><clipPath id="clip-path"><rect class="cls-1" width="1281" height="479.1"/></clipPath></defs><title>Artboard 1</title><g id="Guide"><g class="cls-2"><line class="cls-3" x1="-23.3" y1="326.7" x2="1197.4" y2="326.7"/></g><g class="cls-2"><rect class="cls-4" x="517.5" y="194.1" width="251.6" height="175"/></g><g class="cls-2"><path class="cls-5" d="M688.1,329.4h-6.7a4,4,0,0,1-4-4v-95a4,4,0,0,1,4-4h6.7a4,4,0,0,1,4,4v95A4,4,0,0,1,688.1,329.4Z"/></g><g class="cls-2"><path class="cls-6" d="M391.4-20.9V181.3h212V-20.9ZM593.1,171.5H401.7V-11.1H593.1Z"/><path class="cls-6" d="M603.2-20.9V181.3h212V-20.9ZM804.9,171.5H613.5V-11.1H804.9Z"/><path class="cls-6" d="M608.5,108.8h0a1.75,1.75,0,0,1-1.7-1.7V53.4a1.75,1.75,0,0,1,1.7-1.7h0a1.75,1.75,0,0,1,1.7,1.7V107A1.77,1.77,0,0,1,608.5,108.8Z"/><line class="cls-3" x1="545.9" y1="74.1" x2="484" y2="142.2"/><line class="cls-3" x1="756.4" y1="5.8" x2="632.4" y2="143.9"/><line class="cls-3" x1="569.5" y1="12.8" x2="454.8" y2="140"/><line class="cls-3" x1="506.3" y1="16.4" x2="456.4" y2="71.3"/><line class="cls-3" x1="695.7" y1="24.4" x2="645.8" y2="79.3"/></g><g class="cls-2"><path class="cls-7" d="M737.1,236.1H621.7a10,10,0,0,1-10-10V189.4H762.4l-9.7,34.8A16.17,16.17,0,0,1,737.1,236.1Z"/></g><g class="cls-2"><path class="cls-7" d="M587.7,235.1H501.5V188.8h95.3V226A9.13,9.13,0,0,1,587.7,235.1Z"/></g><g class="cls-2"><path class="cls-6" d="M360.3,199c-14.5,0-93.1-1.9-93.1-1.9-2.2,0-1.9-1.8-1.9-4v-228a4,4,0,0,1,4-4H420c2.2,0,.5,5.8.5,8L424,194.4C423.9,196.6,383.8,199,360.3,199Z"/><line class="cls-3" x1="293.4" y1="-38.9" x2="293.4" y2="183"/><line class="cls-3" x1="330.9" y1="-38.9" x2="333.1" y2="162.6"/><path class="cls-6" d="M384.6,164.1s-4.4-103.8-3.7-200"/><path class="cls-6" d="M356.1,187.6s-.4-131.3.3-227.5"/><line class="cls-3" x1="398.2" y1="-35.6" x2="403.2" y2="146.8"/></g><g class="cls-2"><path class="cls-6" d="M899,203c-14.5,0-93.1-1.9-93.1-1.9-2.2,0-1.9-1.8-1.9-4v-228a4,4,0,0,1,4-4H958.7c2.2,0,.5,5.8.5,8l3.5,225.3C962.6,200.6,922.5,203,899,203Z"/><line class="cls-3" x1="832.1" y1="-34.9" x2="832.1" y2="187"/><line class="cls-3" x1="869.6" y1="-34.9" x2="874.6" y2="147.4"/><path class="cls-6" d="M853.1,189.6s-4.7-129.8-4-226"/><path class="cls-6" d="M924.1,161.1s-5.2-96.8-4.5-193"/><path class="cls-6" d="M899.1,192.1s-4.7-131.8-4-228"/></g><g class="cls-2"><rect class="cls-5" x="391.2" y="194.1" width="126" height="175"/></g><g class="cls-2"><rect class="cls-8" x="184.43" y="282.82" width="36.9" height="5.7"/><rect class="cls-9" x="139.91" y="252.67" width="126" height="58.2"/><rect class="cls-7" x="184.49" y="278.98" width="36.9" height="5.7"/><rect class="cls-8" x="184.45" y="341.04" width="36.9" height="5.7"/><rect class="cls-5" x="139.91" y="310.9" width="126" height="58.2"/><rect class="cls-7" x="184.51" y="337.2" width="36.9" height="5.7"/><rect class="cls-8" x="184.47" y="224.26" width="36.9" height="5.7"/><rect class="cls-9" x="139.91" y="194.14" width="126" height="58.2"/><rect class="cls-7" x="184.42" y="220.41" width="36.9" height="5.7"/></g><g class="cls-2"><rect class="cls-5" x="265.87" y="194.12" width="126" height="175"/><rect class="cls-8" x="373.11" y="267.16" width="5.7" height="36.9"/><rect class="cls-7" x="373.11" y="263.12" width="5.7" height="36.9"/></g><g class="cls-2"><polygon class="cls-5" points="1168.8 181.3 111.4 181.3 185.1 159.5 1087.3 159.5 1168.8 181.3"/><rect class="cls-10" x="111.4" y="181.3" width="1057.3" height="12.4"/></g><g class="cls-2"><polygon class="cls-5" points="401.7 384.6 517.4 368.3 517.4 193.7 401.7 210 401.7 384.6"/></g><g class="cls-2"><rect class="cls-8" x="1065.51" y="282.75" width="36.9" height="5.7"/><rect class="cls-9" x="1021" y="252.7" width="126" height="58.2"/><rect class="cls-7" x="1065.56" y="278.91" width="36.9" height="5.7"/><rect class="cls-8" x="1065.52" y="340.97" width="36.9" height="5.7"/><rect class="cls-5" x="1021" y="310.9" width="126" height="58.2"/><rect class="cls-7" x="1065.58" y="337.12" width="36.9" height="5.7"/><rect class="cls-8" x="1065.54" y="224.19" width="36.9" height="5.7"/><rect class="cls-9" x="1021" y="194.1" width="126" height="58.2"/><rect class="cls-7" x="1065.5" y="220.34" width="36.9" height="5.7"/></g><g class="cls-2"><rect class="cls-5" x="769.1" y="194.1" width="126" height="175"/></g><g class="cls-2"><rect class="cls-5" x="895" y="194.1" width="126" height="175"/><rect class="cls-8" x="908.1" y="267.2" width="5.7" height="36.9"/><rect class="cls-7" x="908.1" y="263.2" width="5.7" height="36.9"/></g><g class="cls-2"><rect class="cls-5" x="517.5" y="347.6" width="251.6" height="21.5"/></g><g class="cls-2"><path class="cls-11" d="M800.4,125.1s8.4,8,13,1.7C813.4,126.7,808.5,116.7,800.4,125.1Z"/><path class="cls-12" d="M815.8,108.3s-5.1,6.9,0,9.7C815.7,118.1,822.6,113.6,815.8,108.3Z"/><path class="cls-11" d="M813,120.8s-3.3,4.9-.7,24h3.6s-2.3-13,.4-23.3"/><path class="cls-12" d="M812.9,122.6s8.7-2.9,11.1,7.1C824,129.6,812.4,131.9,812.9,122.6Z"/><path class="cls-11" d="M805.3,110.8s3,9,8.8,6.2C814.1,117,814.4,107.9,805.3,110.8Z"/><path class="cls-12" d="M803.4,120.8s9.2,7.1,13.1.3C816.5,121.1,810.6,111.7,803.4,120.8Z"/><path class="cls-11" d="M813.4,120.3s5.6-7.3,13.1-.3C826.5,120,818.2,128.4,813.4,120.3Z"/><path class="cls-11" d="M802.7,133.3s5.9,8.1,10.9,3.2C813.6,136.5,810.9,127.2,802.7,133.3Z"/><path class="cls-11" d="M805,140.7s9.6,2.7,10.5-4.2C815.5,136.4,807.8,130.8,805,140.7Z"/><path class="cls-5" d="M824.6,169.5H803.3a3.76,3.76,0,0,1-3.7-3.7V146a1.22,1.22,0,0,1,1.2-1.2h26.4a1.22,1.22,0,0,1,1.2,1.2v19.8A3.84,3.84,0,0,1,824.6,169.5Z"/></g><g class="cls-2"><polygon class="cls-7" points="510.1 163.7 734.7 163.7 767.4 176 484 176 510.1 163.7"/><path class="cls-8" d="M581.3,41c-17.4-4.5-30.8,9.2-31.5,25.5h.1c2.1,0,3.8-.1,3.8-2.2,0-10.5,8.3-21.3,22.2-21.3a28.14,28.14,0,0,1,12.5,2.7A14.83,14.83,0,0,0,581.3,41Z"/><path class="cls-13" d="M599.3,44.4c-5.6-5.9-13.7-9-23.5-9-18.6,0-29.8,14.7-29.8,28.9,0,2.1,1.6,2.2,3.7,2.2.8-16.3,14.1-30.1,31.5-25.5a13.55,13.55,0,0,1,7.1,4.7c6.3,3.1,11,9.1,11,19.2v37.5c2.6-7.5,5.1-15.1,7.6-22.8V64.9C607,56.9,604.3,49.6,599.3,44.4Z"/><path class="cls-8" d="M599.4,102.4v36.1a3.8,3.8,0,1,0,7.6,0V79.6C604.5,87.2,602,94.8,599.4,102.4Z"/><path class="cls-14" d="M603.2,142.2a3.8,3.8,0,0,1-3.8-3.8V64.9c0-16.1-12.2-21.9-23.5-21.9-13.9,0-22.2,10.8-22.2,21.3,0,2.1-1.7,2.2-3.8,2.2s-3.8-.1-3.8-2.2c0-14.2,11.1-28.9,29.8-28.9,9.8,0,17.9,3.1,23.5,9a29.71,29.71,0,0,1,7.7,20.5v73.5A4,4,0,0,1,603.2,142.2Z"/><path class="cls-15" d="M594.4,162.9v-32a1.75,1.75,0,0,1,1.7-1.7h13.5a1.75,1.75,0,0,1,1.7,1.7v32Z"/><path class="cls-15" d="M615.5,138.6c-.7,0-3.7-.4-4.7-.4-3.2,0-5.8,3.3-5.8,7.4s2.6,7,5.8,7.4c1.1.1,3.7.4,4.7.4,3.2,0,5.8-3.3,5.8-7.4S618.7,138.6,615.5,138.6Z"/><ellipse class="cls-16" cx="615.5" cy="146" rx="5.8" ry="7.4"/><path class="cls-15" d="M615.2,145h.6a.9.9,0,0,0,.9-.9V125.6a.9.9,0,0,0-.9-.9h-.6a.9.9,0,0,0-.9.9v18.5A.9.9,0,0,0,615.2,145Z"/><polygon class="cls-8" points="501.8 172.5 514.2 166.5 595.3 166.5 595.3 172.5 501.8 172.5"/><polygon class="cls-8" points="745.3 172.5 731.4 166.5 609.2 166.5 609.2 172.5 745.3 172.5"/></g><g class="cls-2"><polygon class="cls-5" points="883.8 384.6 768.1 368.3 768.1 193.7 883.8 210 883.8 384.6"/></g><g class="cls-2"><path class="cls-5" d="M745.9,374.9s-.8-1.1.3,4.8,2.6,9.3,2.4,11.8,0,7.8-1,9.1-3.5,3.3-3,4.9,1,1.6,1.8,2c3.2.6,5.4-.3,5.9-1.9.3-1.1,1.3-3.8,1.8-5.1a40,40,0,0,0,2.1-9c.2-3.1,2.6-11.3,3.6-13.3,1.1-2.4,2.3-5.1,2.2-7"/><path class="cls-5" d="M736.4,327.7a66.27,66.27,0,0,0-6.2-4.1c-1.4-.6-.7,6.6.8,9.5,0,0-3.8,9.3,4.2,14.5,0,0-.1,15.3,5.8,27.6a21.84,21.84,0,0,0,.8,4.9c.8,3.1,2.6,8.9,2.7,10.3a41.2,41.2,0,0,0,.4,5.4,5.2,5.2,0,0,1-.3,3.5c-.4.7-2.3,1.5-2.3,2.7a2.89,2.89,0,0,0,.8,2.3c.6.5,4.4.3,5.1-1s2.9-6.7,2.9-9.7-.8-5.6-.8-9.9,1.5-8.5,2.6-9.6c1.4,0,4.1-.5,5.1-.5,2.3,5.8.9,9.9.4,14.4-.6,5.5,1.5,15.9,3.8,17.5,3.4,2.4,7,.7,7.1-1.3a3.94,3.94,0,0,0-1.6-3.3c-3.4-2.5-2.5-8.3-2.4-9.8.3-3.3,2.5-9.4,4.8-15.4,8-21.8,2.1-31.4-1.1-34.4a15.37,15.37,0,0,0-13.1-4,14.11,14.11,0,0,0-5.2,2,9.5,9.5,0,0,1,4.6-2,9.73,9.73,0,0,0-2.9-7.2c.4-1.7.5-7-1.2-7.8a12.77,12.77,0,0,0-5.7,5.3S742.3,325.8,736.4,327.7Z"/><path class="cls-5" d="M766.8,356.7c-1.9,5.6-7.7,16.6-19.7,19.9-12.5,3.4-25.9,1.4-28.1-6.1-1.2-4,2.3-10,8-7.1,6.9,3.5,12.9,5.8,17.5,3,4.8-3,4.8-8,5-11s.3-5.5,1.4-8.2"/></g><g class="cls-2"><path class="cls-8" d="M454.6,396.1s8,2,25.7-2.1c5.2-1.2,10.9,4.9,24.1,3.1,32.6,1.3,82,.6,83.5-.3,2.8-1.7,50.5,7.4,66.7,1.1l-33.9-10.8s-14.3,1.5-23.4,1.3c-6.9-.2,15.6-7.2,13.1-12.5s-29.5-2.3-30.1-2.3c-17.7-1.3-66.8,10.8-66.8,10.8l-46.6-3.1Z"/><path class="cls-17" d="M482.1,357.3l1.1-4.8a6.09,6.09,0,0,1,3.5-4.3l.9-.4a7.74,7.74,0,0,1,7.5.7l2.7,2,11.7,4.5,7.7,25.3-25.8-3.9s-14.4,8.5-28.2,7.2c-3.8-.4-2-8.1-2-8.1l8.7-4.3Z"/><path class="cls-18" d="M509.7,348.4l-2.9,1.9-1.9,6,1.6,23.6,91.3-.7c3.4,0,9.4-.8,13.2-3.9,5.7-4.6,9.3-10.7,8.5-16.7-.4-3.4-5.3-17.4-6.5-20.6l-14.3-26.3A43.65,43.65,0,0,0,550,287.1l-11.4,2.4,33.6,47.9-28.5,11.8-23.8.1-6.3-2A6.39,6.39,0,0,0,509.7,348.4Z"/><path class="cls-5" d="M500,370.3s-9.5-2.5-11.9-3.3c-2.6-.8-3.8-4-5.7-6.8a8.24,8.24,0,0,0-5.9-3.1h-.6a9.83,9.83,0,0,0-8.2,4.3l-2,6.3L453.5,382l-6.5,1a5.77,5.77,0,0,0-4.7,4.4v.1a5.07,5.07,0,0,0,3.7,6.1c5.2,1.3,13.9,2.6,20.1-1.2l13-4.7,12.1,2,5.3,2.5Z"/><polygon class="cls-19" points="542.8 361.7 544.5 363.3 546.6 363.8 540.5 357.9 541.5 360.5 542.8 361.7"/><path class="cls-13" d="M547.2,311.4c10.9,14.3,21.2,32.7,37.4,40.8l-8.8-32.9-12.3-29.6-22-21.6-3.3-16.3-21.1,9.6s-1.3,3.2-2.8,7.9C519.2,287,536.1,297.6,547.2,311.4Z"/><path class="cls-19" d="M584.5,352.2c-16.2-8.1-26.4-26.5-37.4-40.8-11.1-13.9-28-24.4-32.9-42-2.9,9.2-6.5,24.5-2.9,34.4,5.4,15.1,27.2,49.5,27.2,49.5l1.9,4.6,6.2,5.9,10.1,2.5-7.8-.4-2.2-2.2-2.2-.5-1.7-1.6-1.3-1.2-1.1-2.5-.2-.2s-20.6,5.4-26.7,4.7a87.57,87.57,0,0,0-14.3,0s-7.3,3.3-7.5,3.9-4,22.6-4,22.6l4,6.3,8.2.4,5.8-2,3.7,2.5,3.4.7,57-.4c4,.1,9.6-2.6,12.9-4.9,0,0,5.1-5.7,5.8-10.6l.2-1.7-2.5-20.4Z"/><path class="cls-13" d="M522.3,378.8c-2.1,0-6.2,1-8.3,3.1-6.2,2.1-8.3-9.3-14.5-6.2-3.6,2.7-6.4,4.6-10.4,5-.8,4.4-1.4,8.2-1.4,8.2l4,6.3,8.2.4,5.8-2,3.7,2.5,3.4.7,57-.4c4,.1,9.6-2.6,12.9-4.9,0,0,5.1-5.7,5.8-10.6l.2-1.7-.9-7.2C573,389.9,543.5,380.7,522.3,378.8Z"/><path class="cls-9" d="M538.1,251.9,517,261.5s-11.1,27.3-5.6,42.4,27.2,49.5,27.2,49.5l3,7.1,1.3,1.2,1.7,1.6,12.2,3.1L549,366l-8.6-8.3s-20.6,5.4-26.7,4.7a87.57,87.57,0,0,0-14.3,0s-7.3,3.3-7.5,3.9-4,22.6-4,22.6l4,6.3,8.2.4,5.8-2,3.7,2.5,3.4.7,57-.4c4,.1,9.6-2.6,12.9-4.9,0,0,5.1-5.7,5.8-10.6l.2-1.7-2.5-20.4-10.6-39.6-12.3-29.6-22-21.6Z"/><path class="cls-5" d="M593.4,298.9,579,319.6l-3.4,13.9a7.26,7.26,0,0,0,.4,4.6c4.5,10,24.9,50.7,41,58.4l21.2,1.8a6.6,6.6,0,0,0,1.4-.1l7.1-1.8,1,.2,1.1.2,5.9,1.1A2,2,0,0,0,657,396l.5-.6,3,.7c1.6.2,3.4-.9,3.4-2.5h0l-9.7-7.6-14-5.1-19,1.8s-9-17-12-24.1c-3.5-8.3-8.4-21.8-8.4-21.8l17.8-21.6L630.4,302l-27.8-11.8Z"/><polyline class="cls-5" points="642.2 390.4 646.8 390.5 650.9 392.5 657 395.2"/><polyline class="cls-5" points="643 386.6 653.2 387.9 659.8 390.6"/><line class="cls-9" x1="641.3" y1="383" x2="646" y2="383.3"/><path class="cls-5" d="M718.7,184.7l-7.1.5-29.8,3.7-8.4,3c-5.7,3.7-24.5,25.7-24.5,25.7l-8.4,21.7,7.2,24.1,20.2-9.5,5.2-14.4-.7-3.4,4.3-8.8,5.5-16.4-.9,3.9,34.3-18.3"/><path class="cls-5" d="M664,258.6l2.5,11.2,4,1.7,3.3,1.3-16,22.2,5.9,9.3,7,4,3.6,6.2,6.5,2.2s-8.1.9-8.9.6-9.3-4.3-9.3-4.3l-7.3-6.7-1.8-4.1v-4.8l-6.6-6.5-.6-21.5,8.7-7.2Z"/><polygon class="cls-20" points="672.1 271.1 665.8 273.1 658.9 281.2 655.1 289.6 659.8 303.9 664.7 308.5 673.9 319.2 678.7 320.3 679.5 322 688.2 321.3 694.4 319.5 694.7 321.6 700.7 319.1 700.9 320.6 705.7 315.1 709.3 305.6 706.7 293.1 708.2 292.8 704.6 287.6 697.8 279.4 693.4 276.2 689.3 274.8 680.6 273.5 675.2 272.2 672.1 271.1"/><path class="cls-21" d="M689.2,303.2c2.1,1,1,3.1,1,4.1-4.1-1-5.2-5.2-9.3-6.2,0,2.1,2.1,3.1,1,5.2-7.7-7.7-20.8-11.8-23.4-24.1l-3.3,7.4,4.7,14.4,4.9,4.5,9.2,10.7,4.9,1.1.8,1.7,8.7-.7,6.2-1.8.3,2.1,6-2.5.2,1.5,4.7-5.5,3.7-9.5-.7-3.6A39.64,39.64,0,0,1,689.2,303.2Z"/><polygon class="cls-9" points="672.1 271.1 665.8 273.1 658.9 281.2 655.1 289.6 659.8 303.9 664.7 308.5 673.9 319.2 678.7 320.3 679.5 322 688.2 321.3 694.4 319.5 694.7 321.6 700.7 319.1 700.9 320.6 705.7 315.1 709.3 305.6 706.7 293.1 708.2 292.8 704.6 287.6 697.8 279.4 693.4 276.2 689.3 274.8 680.6 273.5 675.2 272.2 672.1 271.1"/><path class="cls-19" d="M716.9,185.5l1,2.6-2,3.7.5,4.3s10.8,7,11.3,7.1,9.1-.6,9.1-.6l3.3-11.5-7.8-5.7Z"/><polyline class="cls-5" points="716.2 195.1 717.7 199.8 726.9 205.9 737.8 204.3 737.8 202.2 735.7 200.2 732.9 199.6 731.8 199.7 731 199.8 728.8 199.5 728 197.7"/><path class="cls-5" d="M717.3,184.7l23.4-1.3,3.5.9c1.1-.1,5.6,7.1,5.6,7.1l-.4,1.8,1,1.1,3,9.8-1,2.8-2.5-1.6.1,1.8-1.4,1.5-2.6-.7-2.9-4.6-3.8-3.6-3.6-1.5-5.3.6"/><polyline class="cls-5" points="749.9 205.2 748.3 201.1 744.6 196.3 739.4 192"/><line class="cls-9" x1="750.4" y1="194.3" x2="744.2" y2="187.5"/><path class="cls-13" d="M605.2,301.1c-1-1-4.1-3.1-4.1-5.2,0-5.2,4.1-10.4,0-13.5-9.3-9.3-22.8-3.1-35.2-4.1-11.4,0-16.6-13.5-25.9-17.6-8-3.5-16.7-3.3-25.5-1.9-.3,2.8,1,4.3,4.5,5.3.2.1.8,1.4,1.1,1.4l6.6,1.2,16.1,6.7s20.3,28.2,21,29.4c3.2,5.1,16.9,3.1,16.9,3.1l8.9-9.1,4.6-9.2-7.6-3.4,7.6,3.4-3.5,8.1-1.1,1.1-1.3,2.6,4.4,5.6,17.8,16.6,5,1.1,10-11.8,7.5-4.1a4.05,4.05,0,0,1-.9-.5C622.8,302.1,614.5,304.2,605.2,301.1Z"/><path class="cls-19" d="M674.3,226.6c-2.9-5.2-9.6-10.9-14.7-10.1l-12.3.8c-2.9,1-12.5,9.5-12.5,9.5l19.8,9.2-24.2-9.3-41.2-1.3a67.38,67.38,0,0,0-21,1.2l-29,5.3s-17.3,10.3-21.6,18.7c-1.8,3.6-3,6.2-3.2,8.2,8.8-1.4,17.5-1.7,25.5,1.9,9.3,4.1,14.5,17.6,25.9,17.6,12.4,1,25.9-5.2,35.2,4.1,4.1,3.1,0,8.3,0,13.5,0,2.1,3.1,4.1,4.1,5.2,9.3,3.1,17.6,1,26.9,5.2.3.2.6.3.9.5l8.4-4.5a12.36,12.36,0,0,0,6.4-10l.2-3.1-.1,5.4,3.2-9.5a15,15,0,0,0,.5-3.7c-.7-8.9,3.5-12.8,7.1-14.5a7.12,7.12,0,0,1,9.4,3.2l1.8-14.2,7-6.3,2.5-14.6Z"/><path class="cls-9" d="M517.6,250.6c4.3-8.5,21.6-18.7,21.6-18.7l29-5.3a67.38,67.38,0,0,1,21-1.2l40.4.9,25.1,9.8-21.2-8.4,13.1-10.5,11.3-1c6.7-.5,12,4.7,15.3,8.8l6.2,10.2-2.5,14.6-7,6.3-1.8,14.2h0a7.09,7.09,0,0,0-9.4-3.2c-3.5,1.7-7.7,5.6-7.1,14.5a9.47,9.47,0,0,1-.5,3.7l-3.2,9.5.1-5.4-.2,3.1a11.93,11.93,0,0,1-6.4,10l-15.9,8.6-10,11.8-5-1.1-17.8-16.6-4.4-5.6,5.9-11.8-7.6-3.4,7.6,3.4-3.5,8.1-10,10.2s-13.7,2-16.9-3.1c-.8-1.2-21-29.4-21-29.4l-16.1-6.7-6.6-1.2c-.3,0-.8-1.4-1.1-1.4C512.8,262.4,513.3,259,517.6,250.6Z"/><path class="cls-5" d="M576.9,290.9s8.7,2.8,15.1-1.5"/></g><g class="cls-2"><path class="cls-5" d="M459.6,131.1a2,2,0,0,1-2-2v-20a3.48,3.48,0,0,0-3.5-3.5H447a2,2,0,0,1,0-4h7.2a7.49,7.49,0,0,1,7.5,7.5v20A2.09,2.09,0,0,1,459.6,131.1Z"/><polygon class="cls-5" points="439.1 94.6 436.2 94.6 426.8 102.8 448.1 102.8 439.1 94.6"/><circle class="cls-5" cx="437.5" cy="93.1" r="3.6"/><polygon class="cls-5" points="420.4 101.4 449.7 101.6 451.5 105.9 448.6 139.3 428.9 139.3 424.4 107.3 420.4 101.4"/><polygon class="cls-5" points="421.3 166.4 424.4 169.7 452.4 169.7 456 166.1 448.6 139.3 428.9 139.3 421.3 166.4"/><line class="cls-9" x1="438.4" y1="107.6" x2="438.4" y2="132.8"/><line class="cls-9" x1="445.1" y1="107.6" x2="443.6" y2="132.8"/><line class="cls-9" x1="431.7" y1="107.6" x2="433.2" y2="132.8"/></g><g class="cls-2"><ellipse class="cls-22" cx="599.7" cy="482.5" rx="207" ry="50"/><ellipse class="cls-22" cx="599.7" cy="479.1" rx="156.8" ry="37.9"/></g></g></svg>